<?xml version="1.0" encoding="utf-8"?>
<svg xmlns="http://www.w3.org/2000/svg" shape-rendering="geometricPrecision" text-rendering="geometricPrecision" image-rendering="optimizeQuality" fill-rule="evenodd" clip-rule="evenodd" viewBox="0 0 512 462.735" xmlns:bx="https://boxy-svg.com" width="512px" height="462.735px"><defs><bx:export><bx:file format="svg" href="#object-0"/><bx:file format="svg" href="#object-1" path="Untitled 2.svg"/><bx:file format="svg" path="Untitled 3.svg"/></bx:export></defs><g transform="matrix(1, 0, 0, 1, 11.017502, 1.129993)" id="object-0"><path fill="#2B415E" fill-rule="nonzero" d="M 176.323 43.482 C 176.672 43.919 177.048 44.316 177.444 44.668 C 186.138 52.435 212.461 57.561 240.072 58.338 C 267.742 59.118 296.283 55.461 309.207 45.645 C 310.174 44.913 311.077 44.105 311.907 43.227 C 313.242 41.816 315.431 41.56 317.071 42.623 C 318.711 43.687 319.315 45.754 318.495 47.5 C 309.282 70.54 296.891 87.326 283.012 97.937 C 270.937 107.168 257.729 111.75 244.459 111.744 C 231.194 111.74 217.963 107.152 205.835 98.049 C 191.605 87.367 178.874 70.411 169.442 47.317 C 168.707 45.513 169.445 43.458 171.173 42.495 C 172.901 41.532 175.092 41.956 176.313 43.489 L 176.323 43.482 Z" style=""/><path d="M 180.012 51.047 C 205.421 64.363 279.656 67.745 308.187 51.025 C 299.873 68.979 289.79 82.391 278.8 91.264 C 268.27 99.763 256.933 104.071 245.581 104.18 C 234.194 104.29 222.656 100.204 211.764 91.92 C 200.121 83.064 189.228 69.443 180.012 51.047 Z" style="fill: rgb(162, 162, 162);"/><path fill="#273E5A" fill-rule="nonzero" d="M 122.184 154.098 C 126.368 150.992 129.811 147.983 132.591 144.362 C 135.349 140.766 137.553 136.448 139.316 130.661 L 143.787 116 L 147.076 130.951 C 153.952 162.208 156.667 192.653 149.134 217.064 C 141.397 242.132 123.154 260.71 88.168 267.242 L 83.75 268.124 L 83.223 234.988 L 86.775 234.576 C 99.512 233.102 110.273 227.811 116.649 216.414 C 123.336 204.461 125.504 185.787 120.663 157.842 L 120.261 155.525 L 122.184 154.098 Z M 138.986 149.038 C 136.129 152.759 132.82 155.839 128.948 158.855 C 133.592 187.425 130.989 207.066 123.672 220.143 C 116.468 233.021 104.928 239.515 91.265 241.835 L 91.38 258.582 C 119.838 251.973 134.924 235.99 141.453 214.832 C 147.559 195.046 146.418 170.645 141.743 144.993 C 140.902 146.391 139.982 147.741 138.986 149.038 Z" style=""/><path d="M 124.613 157.2 C 133.504 150.602 139.341 144.277 143.157 131.761 C 156.663 193.152 153.929 250.987 87.416 263.406 L 87.246 238.458 C 115.19 235.224 134.62 214.966 124.613 157.2 Z" style="fill: rgb(255, 255, 255);"/><path fill="#273E5A" fill-rule="nonzero" d="M 96.568 163.384 C 104.853 161.358 113.504 159.241 121.355 154.973 L 126.202 152.336 L 127.235 157.662 C 132.182 183.21 130.957 200.491 125.175 212.539 C 119.186 225.022 108.589 231.724 95.013 235.95 L 87.786 238.201 L 89.966 231.12 C 92.31 223.506 93.795 213.307 94.386 202.308 C 94.998 190.952 94.654 178.764 93.325 167.675 L 92.918 164.281 L 96.568 163.384 Z" style=""/><path d="M 97.692 170.746 C 99.838 192.283 98.473 217.077 93.806 232.236 C 118.26 224.622 132.121 208.606 123.996 162.17 C 120.908 163.969 117.645 165.464 114.253 166.633 C 109.314 168.339 103.636 169.675 97.692 170.746 Z" style="fill: rgb(164, 164, 164);"/><path fill="#273E5A" fill-rule="nonzero" d="M 110.375 252.036 C 118.115 248.124 125.271 242.454 131.419 235.518 L 134.384 232.175 L 164.91 265.151 L 164.91 384.362 L 109.209 384.362 L 108.16 381.978 C 100.369 364.282 94.888 345.107 90.988 324.925 C 87.466 306.698 85.232 287.658 83.751 268.146 C 83.507 264.912 83.266 262.624 83.62 259.395 L 83.767 258.067 L 87.254 257.997 C 95.224 257.864 103.055 255.736 110.375 252.036 Z" style=""/><path d="M 134.445 238.07 C 121.765 252.372 104.947 261.599 87.317 261.893 C 90.238 304.833 96.501 345.603 111.843 380.45 L 160.897 380.45 L 160.897 266.647 L 134.445 238.07 Z" style="fill: rgb(255, 255, 255);"/><path fill="#273E5A" fill-rule="nonzero" d="M 139.475 132.142 C 141.622 122.018 140.58 109.818 137.913 97.051 C 135.189 84.001 130.776 70.407 126.3 57.785 L 124.876 53.771 L 175.531 41.253 L 176.873 44.349 C 184.452 61.84 193.687 76.227 204.946 86.564 C 215.893 96.616 228.806 102.842 244.034 104.355 C 259.261 102.842 272.174 96.616 283.123 86.564 C 294.379 76.228 303.616 61.84 311.194 44.349 L 312.539 41.245 L 364.766 54.236 L 363.344 58.247 C 358.867 70.872 354.317 84.718 351.596 97.705 C 348.951 110.324 348.037 122.056 350.655 130.828 L 350.944 131.8 L 350.717 132.77 C 347.763 145.397 345.579 158.303 344.736 171.053 C 343.898 183.699 344.384 196.183 346.745 208.065 L 347.067 209.685 L 346.087 211.044 C 332.874 229.37 317.444 246.362 299.698 260.694 C 283.575 273.717 265.529 284.554 245.492 292.216 L 244.033 292.773 L 242.576 292.216 C 221.498 284.156 203.169 272.789 186.948 259.049 C 170.783 245.355 156.74 229.334 144.171 211.901 L 143.235 210.603 L 143.498 209.028 C 145.595 196.437 146.292 183.883 145.621 171.367 C 144.95 158.855 142.906 146.369 139.522 133.914 L 139.284 133.04 L 139.475 132.142 Z" style=""/><path fill="#fff" d="M 134.075 55.528 L 173.19 45.862 C 188.778 81.838 211.352 105.203 244.034 108.273 C 276.715 105.203 299.289 81.838 314.878 45.862 L 359.566 56.978 C 350.512 82.508 341.167 112.995 346.814 131.914 C 340.81 157.565 337.95 184.355 342.81 208.798 C 318.008 243.201 285.302 272.797 244.034 288.577 C 202.765 272.797 172.251 244.058 147.448 209.655 C 151.406 185.898 150.486 162.282 144.892 138.798 C 147.901 131.801 149.344 123.901 148.805 115.382 C 147.558 95.616 141.076 74.459 134.075 55.528 Z" style=""/><path fill="#273E5A" fill-rule="nonzero" d="M 175.662 41.785 L 177.001 44.735 C 186.814 66.355 198.826 82.08 211.764 91.92 C 222.656 100.204 234.194 104.29 245.581 104.18 C 256.933 104.071 268.27 99.763 278.8 91.264 C 291.017 81.4 303.062 63.16 311.852 42.073 L 345.175 49.378 L 343.581 53.506 C 330.911 82.086 314.757 103.271 296.919 117.046 C 280.259 129.912 262.137 136.347 243.976 136.347 C 225.815 136.347 207.694 129.912 191.033 117.046 C 173.195 103.271 157.042 82.086 144.371 53.506 L 142.613 49.455 L 175.662 41.785 Z" style=""/><path d="M 173.333 46.309 L 148.04 51.962 C 195.607 159.258 292.346 159.258 339.913 51.962 L 314.62 46.309 C 280.282 128.676 210.715 128.665 173.333 46.309 Z" style="fill: rgb(255, 255, 255);"/><path fill="#273E5A" fill-rule="nonzero" d="M 91.822 312.085 L 160.613 269.015 L 91.822 312.085 Z M 98.326 350.258 L 158.5 317.172 L 98.326 350.258 Z M 30.613 162.671 C 29.425 133.605 38.593 108.978 54.925 89.786 C 72.344 69.314 97.88 55.094 127.633 48.327 L 131.061 47.548 L 132.289 50.773 C 139.94 70.869 147.452 93.944 148.805 115.382 C 149.559 127.312 146.427 138.031 140.551 146.754 C 134.365 155.939 125.155 162.867 114.253 166.633 C 99.622 171.688 78.513 173.489 63.159 174.799 C 56.662 175.353 51.22 175.817 47.985 176.378 C 40.998 177.589 37.209 177.939 34.257 175.591 C 31.314 173.249 30.894 169.557 30.613 162.671 Z" style=""/><path fill="#fff" d="M 34.61 162.518 C 32.237 104.445 72.651 64.844 128.543 52.132 C 135.406 70.16 143.481 94.608 144.808 115.612 C 146.244 138.321 132.588 156.155 112.921 162.949 C 92.643 169.954 58.599 170.566 47.295 172.527 C 35.705 174.537 35.078 173.955 34.61 162.518 Z" style=""/><path fill="#273E5A" fill-rule="nonzero" d="M 358.546 235.518 C 371.402 250.02 384.617 255.747 403.551 259.723 L 406.535 260.331 C 406.575 263.166 406.574 265.273 406.468 268.106 C 405.703 288.212 402.652 307.411 399.013 325.765 C 395.096 345.526 389.596 364.282 381.805 381.978 L 380.754 384.362 L 325.065 384.362 C 325.132 344.617 325.212 304.871 325.262 265.126 L 355.578 232.171 L 358.546 235.518 Z" style=""/><path d="M 355.52 238.07 C 368.2 252.372 381.351 259.056 402.719 263.544 C 399.797 306.483 393.464 345.603 378.122 380.45 L 329.068 380.45 L 329.258 266.62 L 355.52 238.07 Z" style="fill: rgb(255, 255, 255);"/><path fill="#273E5A" fill-rule="nonzero" d="M 283.568 297.061 C 299.677 286.848 314.994 274.684 326.495 263.842 L 333.259 257.467 L 333.354 380.647 L 156.61 380.647 L 156.705 257.474 L 163.47 263.842 C 175.621 275.282 189.241 286.047 203.768 295.329 C 216.872 303.701 230.685 310.846 244.782 316.165 C 257.107 312.246 270.578 305.296 283.568 297.061 Z" style=""/><path d="M 160.692 271.095 L 160.611 376.734 L 329.354 376.734 L 329.273 271.102 C 322.554 277.363 315.552 283.358 308.261 288.982 C 289.545 303.419 268.94 315.381 246.299 323.13 L 244.982 323.58 L 243.666 323.13 C 223.918 316.371 204.748 306.088 186.018 292.238 C 177.482 285.926 169.046 278.881 160.692 271.095 Z" style="fill: rgb(255, 255, 255);" id="object-1"/><path fill="#273E5A" fill-rule="nonzero" d="M 247.816 135.296 L 248.289 284.899 L 243.096 284.899 L 242.149 135.296 L 247.816 135.296 Z" style=""/><path fill="#273E5A" fill-rule="nonzero" d="M 111.707 376.822 L 382.852 376.822 L 391.248 419.23 L 95.093 419.23 L 108.691 376.822 L 111.707 376.822 Z" style=""/><path d="M 379.485 380.58 L 111.707 380.58 L 100.519 415.473 L 386.393 415.473 L 379.485 380.58 Z" style="fill: rgb(255, 255, 255);"/><path fill="#273E5A" fill-rule="nonzero" d="M 351.948 223.519 C 353.99 227.852 356.393 231.736 358.967 235.681 L 360.535 238.084 L 358.653 240.28 C 343.657 257.791 326.911 274.597 308.261 288.982 C 289.545 303.419 268.94 315.381 246.299 323.13 L 244.982 323.58 L 243.666 323.13 C 223.918 316.371 204.748 306.088 186.018 292.238 C 167.363 278.443 149.174 261.138 131.312 240.28 L 129.43 238.084 L 130.998 235.681 C 133.572 231.736 135.975 227.852 138.017 223.519 C 140.065 219.167 141.846 214.189 143.232 207.945 L 145.218 198.994 L 150.474 206.585 C 163.179 224.938 177.6 240.472 193.583 253.382 C 209.259 266.043 226.443 276.19 244.983 284.005 C 263.518 276.191 280.696 266.048 296.369 253.392 C 312.358 240.48 326.784 224.942 339.491 206.585 L 344.745 198.995 L 346.733 207.945 C 348.119 214.188 349.9 219.167 351.948 223.519 Z" style=""/><path d="M 355.581 237.774 C 350.328 229.719 345.707 221.8 342.814 208.77 C 316.963 246.117 284.086 272.012 245.432 288.064 C 244.805 288.325 245.131 288.313 244.504 288.052 C 205.862 271.998 172.995 246.107 147.151 208.77 C 144.258 221.8 139.637 229.719 134.384 237.774 C 169.769 279.092 206.261 306.194 244.982 319.446 C 289.373 304.253 325.865 272.472 355.581 237.774 Z" style="fill: rgb(255, 255, 255);"/><path fill="#273E5A" fill-rule="nonzero" d="M 367.781 154.098 L 369.703 155.525 L 369.302 157.842 C 364.462 185.787 366.629 204.461 373.317 216.414 C 379.693 227.811 390.454 233.102 403.19 234.576 L 406.799 234.988 L 406.468 268.096 L 401.797 267.242 C 366.811 260.71 348.568 242.132 340.831 217.064 C 333.298 192.653 336.014 162.208 342.889 130.951 L 346.177 116 L 350.649 130.661 C 353.941 141.462 358.697 147.355 367.781 154.098 Z" style=""/><path d="M 363.187 157.2 C 354.296 150.601 350.624 144.277 346.808 131.761 C 333.302 193.151 336.036 250.987 402.549 263.406 L 402.719 238.458 C 370.522 230.047 353.181 214.966 363.187 157.2 Z" style="fill: rgb(255, 255, 255);"/><path fill="#273E5A" fill-rule="nonzero" d="M 367.665 154.01 C 370.796 156.149 374.561 157.868 378.454 159.242 C 383.584 161.052 388.961 162.249 393.453 163.015 L 397.182 163.652 L 396.744 167.31 C 395.428 178.299 395.152 190.657 395.814 202.218 C 396.465 213.613 398.025 224.204 400.39 231.888 L 402.348 238.252 L 395.688 236.809 C 381.173 233.666 370.15 226.396 363.959 213.081 C 358.023 200.316 356.75 182.045 361.427 156.517 L 362.528 150.501 L 367.665 154.01 Z" style=""/><path d="M 365.377 157.205 C 373.307 162.622 384.519 165.46 392.763 166.868 C 390.092 189.168 391.627 217.013 396.549 233.005 C 369.995 227.255 356.324 206.612 365.377 157.205 Z" style="fill: rgb(164, 164, 164);"/><path fill="#273E5A" fill-rule="nonzero" d="M 435.04 89.786 C 451.372 108.978 460.54 133.605 459.352 162.671 C 459.071 169.557 458.652 173.249 455.708 175.591 C 452.756 177.938 448.968 177.589 441.98 176.378 C 438.745 175.817 433.303 175.353 426.806 174.799 C 411.452 173.489 390.343 171.688 375.712 166.633 C 364.81 162.867 355.6 155.939 349.414 146.754 C 343.538 138.031 340.406 127.312 341.16 115.382 C 341.843 104.571 344.242 92.949 347.342 81.748 C 350.402 70.69 354.19 59.93 357.676 50.773 L 358.903 47.548 L 362.332 48.327 C 392.086 55.094 417.621 69.314 435.04 89.786 Z" style=""/><path fill="#fff" d="M 455.355 162.518 C 457.728 104.445 417.314 64.844 361.422 52.132 C 354.559 70.16 346.484 94.608 345.157 115.612 C 343.721 138.321 357.377 156.155 377.044 162.949 C 397.322 169.954 431.366 170.566 442.67 172.527 C 454.26 174.537 454.887 173.955 455.355 162.518 Z" style=""/></g></svg>