<?xml version="1.0" encoding="UTF-8" standalone="no"?>
<!DOCTYPE svg PUBLIC "-//W3C//DTD SVG 1.1//EN" "http://www.w3.org/Graphics/SVG/1.1/DTD/svg11.dtd">
<svg width="100%" height="100%" viewBox="0 0 160 80" version="1.1" xmlns="http://www.w3.org/2000/svg" xmlns:xlink="http://www.w3.org/1999/xlink" xml:space="preserve" xmlns:serif="http://www.serif.com/" style="fill-rule:evenodd;clip-rule:evenodd;stroke-linejoin:round;stroke-miterlimit:2;">
    <g transform="matrix(0.97286,0,0,0.832856,36.2265,14.8849)">
        <g transform="matrix(1,0,0,1,7.5,-11.5)">
            <path d="M13.117,50.792C16.277,49.3 20.347,49.652 20.347,49.652C20.347,49.652 11.765,53.19 8.6,57.482C7.804,58.707 6.963,60.005 6.143,61.283C10.018,59.447 14.718,59.512 14.718,59.512C14.718,59.512 5.107,64.309 0.846,69.793L14.567,82.606C12.163,60.923 28.833,42.978 38.947,35.613C24.361,37.672 17.13,45.32 13.117,50.792Z" style="fill:white;fill-rule:nonzero;"/>
        </g>
        <g transform="matrix(1,0,0,1,7.5,-11.5)">
            <path d="M70.738,0C68.049,23.943 40.128,21.658 35.903,19.421C42.475,18.932 47.171,18.685 51.846,16.708C44.153,16.364 34.539,12.995 23.628,7.81C32.418,16.445 28.864,28.186 21.512,38.669C44.945,24.105 57.281,35.915 47.362,56.25C81.437,39.603 75.767,6.269 70.738,0Z" style="fill:white;fill-rule:nonzero;"/>
        </g>
    </g>
</svg>
