<?xml version="1.0" encoding="UTF-8" standalone="no"?>
<!DOCTYPE svg PUBLIC "-//W3C//DTD SVG 1.1//EN" "http://www.w3.org/Graphics/SVG/1.1/DTD/svg11.dtd">
<svg width="100%" height="100%" viewBox="0 0 160 80" version="1.1" xmlns="http://www.w3.org/2000/svg" xmlns:xlink="http://www.w3.org/1999/xlink" xml:space="preserve" xmlns:serif="http://www.serif.com/" style="fill-rule:evenodd;clip-rule:evenodd;stroke-linejoin:round;stroke-miterlimit:2;">
    <g transform="matrix(0.877452,0,0,0.877452,9.75422,5.88577)">
        <g transform="matrix(1,0,0,1,46.5,-1.5)">
            <path d="M57.322,68.55C58.018,69.094 59.538,69.95 62.194,69.95C62.942,69.95 63.774,69.882 64.706,69.722C64.786,69.19 64.774,68.662 64.586,68.222C64.146,67.19 62.818,67.01 61.95,67.01C61.486,67.01 61.154,67.062 61.154,67.062C61.154,67.062 56.578,63.214 49.222,56.866C47.838,55.674 46.658,54.622 45.638,53.686C44.538,53.978 43.442,54.138 42.382,54.226C42.518,54.374 42.65,54.514 42.774,54.646C44.694,56.678 49.99,61.678 57.322,68.55Z" style="fill:white;fill-rule:nonzero;"/>
        </g>
        <g transform="matrix(1,0,0,1,46.5,-1.5)">
            <path d="M15.919,22.492C10.839,15.828 6.591,8.556 4.131,0.568C0.711,7.436 -0.177,14.78 0.867,21.472C1.459,25.284 2.647,28.9 4.247,32.328C11.551,33.652 18.055,36.832 22.827,41.896C23.903,43.04 24.859,44.244 25.695,45.496C25.747,45.436 25.795,45.372 25.843,45.312C25.983,45.132 26.119,44.96 26.255,44.792C27.343,43.44 28.191,41.312 28.751,39.9C28.871,39.6 28.979,39.324 29.075,39.088C29.339,38.456 29.667,37.904 30.051,37.428C24.443,31.876 20.839,28.944 15.919,22.492Z" style="fill:white;fill-rule:nonzero;"/>
        </g>
        <g transform="matrix(1,0,0,1,46.5,-1.5)">
            <path d="M13.886,42.853C15.074,47.765 17.618,50.049 20.454,51.117C21.778,49.873 22.766,48.865 23.546,48.021C21.022,47.845 17.47,46.793 13.886,42.853Z" style="fill:white;fill-rule:nonzero;"/>
        </g>
        <g transform="matrix(1,0,0,1,46.5,-1.5)">
            <path d="M50.234,73.923C50.946,75.487 50.678,76.643 50.198,78.527C49.986,80.219 51.674,81.047 53.226,81.047C53.894,81.047 54.538,80.895 54.99,80.591C57.738,78.751 59.53,78.019 60.714,78.019C62.63,78.019 62.938,79.943 63.09,82.167C63.118,82.167 69.982,75.175 63.286,71.779C62.898,71.811 62.514,71.827 62.138,71.827C61.118,71.827 60.138,71.711 59.23,71.483C57.406,71.023 55.65,70.351 54.41,69.231C50.51,65.711 44.762,60.299 39.202,54.343C39.102,54.343 39.002,54.343 38.902,54.347C37.774,54.351 36.374,54.359 35.906,54.547C35.606,54.667 35.326,54.815 35.05,54.987C35.97,55.991 36.782,57.107 37.65,58.115C41.602,62.707 49.45,72.191 50.234,73.923Z" style="fill:white;fill-rule:nonzero;"/>
        </g>
        <g transform="matrix(1,0,0,1,46.5,-1.5)">
            <path d="M62.427,32.328C64.027,28.9 65.215,25.284 65.807,21.472C66.851,14.78 65.963,7.436 62.543,0.568C60.083,8.556 55.835,15.828 50.755,22.492C45.599,29.256 41.883,32.148 35.795,38.252C35.347,37.984 34.703,37.752 34.019,37.752C32.995,37.752 31.879,38.272 31.175,39.96C30.571,41.412 29.571,44.296 28.027,46.216C26.483,48.136 24.811,50.52 17.451,56.868C10.095,63.216 5.519,67.06 5.519,67.06C5.519,67.06 5.187,67.012 4.723,67.012C3.855,67.012 2.527,67.188 2.087,68.22C1.899,68.66 1.887,69.188 1.967,69.72C2.899,69.88 3.735,69.948 4.479,69.948C7.135,69.948 8.655,69.096 9.351,68.548C16.683,61.676 21.979,56.68 23.899,54.644C26.399,51.996 31.831,45.988 31.831,45.988C31.831,45.988 32.595,46.412 33.571,46.412C33.971,46.412 34.407,46.344 34.843,46.144C34.335,46.868 32.799,48.372 32.227,49.04C25.411,56.988 17.303,64.684 12.263,69.232C11.023,70.348 9.271,71.02 7.447,71.48C6.535,71.712 5.555,71.828 4.535,71.828C4.159,71.828 3.775,71.812 3.387,71.78C-3.309,75.176 3.555,82.168 3.583,82.168C3.739,79.94 4.047,78.02 5.963,78.02C7.143,78.02 8.935,78.748 11.683,80.592C12.139,80.896 12.779,81.048 13.447,81.048C14.999,81.048 16.691,80.216 16.475,78.528C15.995,76.64 15.731,75.488 16.439,73.924C17.227,72.192 25.071,62.708 29.023,58.116C30.807,56.04 32.363,53.516 35.063,52.436C38.523,51.052 49.839,55.056 52.787,42.852C48.791,47.248 44.831,48.052 42.299,48.052C40.851,48.052 39.871,47.788 39.615,47.784C40.727,45.692 42.131,43.716 43.847,41.896C48.619,36.832 55.123,33.652 62.427,32.328Z" style="fill:white;fill-rule:nonzero;"/>
        </g>
    </g>
</svg>
