<?xml version="1.0" encoding="UTF-8" standalone="no"?>
<!DOCTYPE svg PUBLIC "-//W3C//DTD SVG 1.1//EN" "http://www.w3.org/Graphics/SVG/1.1/DTD/svg11.dtd">
<svg width="100%" height="100%" viewBox="0 0 160 80" version="1.1" xmlns="http://www.w3.org/2000/svg" xmlns:xlink="http://www.w3.org/1999/xlink" xml:space="preserve" xmlns:serif="http://www.serif.com/" style="fill-rule:evenodd;clip-rule:evenodd;stroke-linejoin:round;stroke-miterlimit:2;">
    <g transform="matrix(1,0,0,1,39.5,2)">
        <path d="M48.641,33.822L48.637,33.822C48.637,33.818 48.641,33.814 48.641,33.814C49.271,29.486 53.531,25.935 56.907,20.378C57.09,20.961 56.497,24.997 54.458,28.572C58.901,25.794 64.689,23.497 70.531,19.683C70.303,21.308 60.376,35.209 48.641,33.822ZM64.247,64.709C57.114,55.411 48.795,49.887 46.833,42.263C59.425,45.053 64.604,62.954 64.247,64.709ZM16.247,64.709C15.89,62.954 21.069,45.053 33.664,42.263C31.699,49.887 23.38,55.411 16.247,64.709ZM9.98,19.683C15.821,23.497 21.609,25.794 26.052,28.572C24.009,24.997 23.416,20.961 23.603,20.378C26.979,25.935 31.235,29.486 31.865,33.814C31.869,33.814 31.869,33.818 31.873,33.822C20.134,35.209 10.203,21.308 9.98,19.683ZM80.588,2.813C80.568,2.097 80.523,1.386 80.454,0.678C79.052,2.627 77.363,4.403 75.539,5.964C71.461,9.454 66.7,12.035 62.049,14.724C57.402,17.414 52.768,20.285 49.116,24.216C46.886,26.615 45.079,29.393 43.754,32.382L43.754,32.37C43.763,30.898 43.43,29.745 42.906,28.92C43.044,28.69 43.186,28.459 43.32,28.224C44.807,25.664 46.074,22.833 47.89,20.682C48.682,19.743 49.6,18.938 50.635,18.376C50.834,18.267 51.042,18.166 51.253,18.073C49.758,17.96 48.365,18.279 47.187,18.955C45.03,20.192 43.535,22.534 42.503,25.26C42.203,26.053 41.943,26.882 41.703,27.731C40.785,27.193 39.709,27.193 38.791,27.731C38.555,26.882 38.291,26.053 37.991,25.26C36.959,22.534 35.468,20.192 33.311,18.955C32.129,18.279 30.74,17.96 29.241,18.073C29.452,18.166 29.66,18.267 29.863,18.376C30.898,18.938 31.812,19.743 32.604,20.682C34.42,22.833 35.687,25.664 37.174,28.224C37.312,28.459 37.45,28.69 37.592,28.92C37.093,29.705 36.772,30.789 36.748,32.164C35.432,29.256 33.656,26.554 31.479,24.216C27.832,20.285 23.197,17.414 18.546,14.724C13.899,12.035 9.135,9.454 5.061,5.964C3.237,4.403 1.547,2.627 0.142,0.678C0.073,1.386 0.032,2.097 0.012,2.813C-0.102,6.959 0.617,11.145 2.116,15.015C5.243,23.092 11.6,29.769 19.261,33.866C20.337,34.445 21.442,34.971 22.563,35.448C22.043,35.387 21.523,35.331 21.004,35.282C18.603,35.043 16.178,34.853 13.867,34.291C12.831,34.04 11.807,33.705 10.873,33.276C10.979,33.507 11.093,33.733 11.219,33.96C11.945,35.27 13.018,36.487 14.354,37.502C16.674,39.27 19.72,40.439 22.921,40.948C26.845,38.785 30.383,37.955 30.383,37.955C30.383,37.955 28.534,39.124 26.17,40.993C25.094,41.842 23.908,42.841 22.746,43.941C17.523,49.057 13.916,55.88 13.144,63.128C12.758,66.72 13.103,70.404 14.139,73.866C14.318,74.461 14.517,75.047 14.736,75.629C15.471,73.672 16.491,71.803 17.669,70.076C20.309,66.226 23.725,62.987 27.023,59.678C30.322,56.374 33.567,52.916 35.748,48.79C36.402,47.553 36.947,46.263 37.385,44.936C37.974,51.076 38.945,56.924 40.249,62.117C41.581,56.798 42.572,50.788 43.153,44.483C43.616,45.967 44.213,47.415 44.941,48.79C47.118,52.916 50.363,56.374 53.666,59.678C56.964,62.987 60.38,66.226 63.016,70.076C64.198,71.803 65.218,73.672 65.953,75.629C66.172,75.047 66.371,74.461 66.55,73.866C67.586,70.404 67.931,66.72 67.545,63.128C66.745,55.634 62.914,48.592 57.407,43.423C56.578,42.647 55.717,41.915 54.823,41.223C54.827,41.223 54.835,41.219 54.843,41.219C52.345,39.221 50.339,37.955 50.339,37.955C50.339,37.955 53.848,38.78 57.752,40.92C60.888,40.398 63.865,39.237 66.144,37.502C67.476,36.487 68.552,35.27 69.279,33.96C69.405,33.733 69.519,33.507 69.625,33.276C68.686,33.705 67.667,34.04 66.631,34.291C64.316,34.853 61.891,35.043 59.494,35.282C59.019,35.327 58.544,35.379 58.069,35.432C59.178,34.958 60.27,34.437 61.338,33.866C68.995,29.769 75.352,23.092 78.484,15.015C79.983,11.145 80.702,6.959 80.588,2.813Z" style="fill:white;fill-rule:nonzero;"/>
    </g>
</svg>
