<?xml version="1.0" encoding="UTF-8" standalone="no"?>
<!DOCTYPE svg PUBLIC "-//W3C//DTD SVG 1.1//EN" "http://www.w3.org/Graphics/SVG/1.1/DTD/svg11.dtd">
<svg width="100%" height="100%" viewBox="0 0 160 80" version="1.1" xmlns="http://www.w3.org/2000/svg" xmlns:xlink="http://www.w3.org/1999/xlink" xml:space="preserve" xmlns:serif="http://www.serif.com/" style="fill-rule:evenodd;clip-rule:evenodd;stroke-linejoin:round;stroke-miterlimit:2;">
    <g transform="matrix(0.887508,0,0,0.887508,8.83717,5)">
        <g transform="matrix(1,0,0,1,43,0)">
            <path d="M6.241,26.884C6.241,21.913 7.439,17.218 9.559,13.072C6.245,18.144 4.315,24.199 4.315,30.69C4.315,45.153 13.881,57.428 27.046,61.577C27.643,59.745 28.22,57.986 28.776,56.283C15.79,52.756 6.241,40.93 6.241,26.884Z" style="fill:white;fill-rule:nonzero;"/>
        </g>
        <g transform="matrix(1,0,0,1,43,0)">
            <path d="M73.688,35.657C73.688,30.953 72.798,26.464 71.178,22.331C71.836,25.012 72.189,27.811 72.189,30.69C72.189,46.399 61.799,59.734 47.505,64.247C47.757,65.028 48.009,65.821 48.268,66.633C46.116,68.174 44.328,69.897 42.643,71.891C60.235,69.121 73.688,53.954 73.688,35.657Z" style="fill:white;fill-rule:nonzero;"/>
        </g>
        <g transform="matrix(1,0,0,1,43,0)">
            <path d="M69.373,30.69C69.373,24.199 67.443,18.144 64.124,13.072C66.249,17.218 67.447,21.909 67.447,26.884C67.447,40.934 57.894,52.76 44.904,56.283C45.46,57.986 46.041,59.745 46.638,61.577C59.803,57.432 69.373,45.153 69.373,30.69Z" style="fill:white;fill-rule:nonzero;"/>
        </g>
        <g transform="matrix(1,0,0,1,43,0)">
            <path d="M25.419,66.632C25.675,65.819 25.931,65.027 26.183,64.246C11.885,59.733 1.499,46.398 1.499,30.689C1.499,27.81 1.848,25.011 2.506,22.334C0.89,26.463 0,30.956 0,35.656C0,53.949 13.441,69.112 31.029,71.886C29.347,69.896 27.564,68.173 25.419,66.632Z" style="fill:white;fill-rule:nonzero;"/>
        </g>
        <g transform="matrix(1,0,0,1,43,0)">
            <path d="M36.834,72.491C34.839,69.729 32.776,67.269 30.29,65.11C30.907,63.071 31.513,61.126 32.102,59.225C33.442,54.893 34.709,50.801 35.806,46.792C36.16,45.514 36.501,44.313 36.834,43.144C37.171,44.313 37.512,45.514 37.874,46.813C38.966,50.809 40.238,54.906 41.586,59.245C42.175,61.138 42.776,63.075 43.394,65.106C40.904,67.265 38.832,69.724 36.834,72.491ZM48.268,66.63C48.008,65.822 47.756,65.025 47.504,64.244C47.212,63.338 46.923,62.449 46.639,61.579C46.038,59.743 45.461,57.987 44.905,56.285C43.824,52.984 42.833,49.882 41.948,46.809C40.152,40.673 38.771,34.635 36.83,25.559C34.892,34.635 33.515,40.669 31.724,46.804C30.842,49.878 29.851,52.98 28.775,56.281C28.219,57.983 27.642,59.743 27.045,61.575C26.76,62.449 26.472,63.338 26.179,64.244C25.932,65.025 25.676,65.818 25.42,66.63C27.565,68.175 29.348,69.894 31.029,71.888C32.963,74.177 34.762,76.831 36.83,80.005C38.901,76.831 40.705,74.177 42.642,71.888C44.328,69.894 46.115,68.175 48.268,66.63Z" style="fill:white;fill-rule:nonzero;"/>
        </g>
        <g transform="matrix(1,0,0,1,43,0)">
            <path d="M36.843,0C23.504,0 12.687,10.77 12.687,24.052C12.687,31.474 16.062,38.111 21.371,42.523C18.504,39.065 16.781,34.637 16.781,29.804C16.781,18.77 25.762,9.828 36.843,9.828C47.924,9.828 56.905,18.77 56.905,29.804C56.905,34.637 55.182,39.065 52.315,42.523C57.624,38.111 60.999,31.474 60.999,24.052C60.999,10.77 50.182,0 36.843,0Z" style="fill:white;fill-rule:nonzero;"/>
        </g>
    </g>
</svg>
