<?xml version="1.0" encoding="UTF-8" standalone="no"?>
<!DOCTYPE svg PUBLIC "-//W3C//DTD SVG 1.1//EN" "http://www.w3.org/Graphics/SVG/1.1/DTD/svg11.dtd">
<svg width="100%" height="100%" viewBox="0 0 160 80" version="1.1" xmlns="http://www.w3.org/2000/svg" xmlns:xlink="http://www.w3.org/1999/xlink" xml:space="preserve" xmlns:serif="http://www.serif.com/" style="fill-rule:evenodd;clip-rule:evenodd;stroke-linejoin:round;stroke-miterlimit:2;">
    <g transform="matrix(0.887698,0,0,0.887698,46.0444,3.57567)">
        <path d="M66.908,18.201C62.146,17.829 57.619,21.141 56.733,25.914C56.696,26.08 56.672,26.249 56.643,26.419C52.426,25.153 47.786,25.214 43.63,26.775C40.922,27.77 38.466,29.372 36.2,31.176C40.552,32.32 44.248,32.263 47.64,29.857C47.64,29.857 45.041,34.185 36.428,34.181C35.704,34.181 34.944,34.152 34.135,34.088C28.97,33.663 25.546,31.604 22.776,28.296C20.141,25.578 18.844,21.586 19.328,17.792C19.653,15.119 20.857,12.543 22.573,10.415C25.399,7.669 26.583,7.665 27.762,7.459C29.295,7.127 31.064,7.9 32.113,9.085C32.784,9.833 33.248,10.876 33.411,12.001C33.781,14.403 32.577,16.854 30.613,18.363C28.571,19.964 25.566,20.522 22.784,19.807L22.618,20.276C28.002,22.812 34.688,20.292 36.668,14.541C37.904,11.002 36.904,7.03 34.289,4.454C39.002,4.074 43.935,5.416 47.701,8.349C50.316,10.266 52.52,12.802 54.13,15.706C54.22,15.867 54.419,15.94 54.594,15.867C54.781,15.79 54.874,15.576 54.797,15.39C52.174,8.903 46.623,3.54 39.718,1.562C32.569,-0.565 24.155,1.158 18.697,6.419C16.152,8.789 14.196,11.823 13.094,15.135C13.077,15.058 13.069,15.018 13.069,15.018C11.691,18.824 11.654,20.761 11.182,21.914C10.719,23.196 9.446,24.118 8.083,24.344C7.217,24.49 6.229,24.349 5.318,23.952C3.362,23.111 2.097,21.093 1.886,18.957C1.638,16.713 2.61,14.25 4.428,12.535L4.159,12.195C-0.217,14.982 -1.433,21.056 1.926,25.17C4.533,28.389 9.312,29.295 12.919,27.103C13.952,30.654 15.932,33.942 18.71,36.441C20.983,38.516 23.744,40.017 26.583,41.25C24.578,37.084 22.089,34.249 17.949,33.254C17.949,33.254 23.809,32.203 30.015,40.619C30.678,41.513 31.235,42.383 31.703,43.232C33.219,45.986 33.773,48.542 33.752,51.236C33.809,52.194 33.736,53.145 33.537,54.083C33.504,54.298 33.459,54.484 33.403,54.653C33.252,55.216 33.053,55.77 32.809,56.32C31.373,59.616 28.523,61.986 25.151,63.074C25.188,63.054 25.208,63.046 25.208,63.046C18.852,63.846 17.811,62.884 16.583,62.144C15.208,61.392 14.387,59.652 14.379,58.075C14.366,57.072 14.708,55.984 15.326,55.03C16.636,52.979 19.161,51.915 21.638,52.061C24.236,52.19 26.867,53.735 28.494,56.093L28.929,55.851C26.546,50.415 19.844,47.944 14.549,50.985C11.638,52.639 9.836,55.713 9.665,58.945C8.531,57.804 7.547,56.502 6.762,55.09C3.781,49.804 3.736,43.074 6.127,37.453C6.298,37.028 5.713,36.733 5.469,37.125C2.13,42.872 1.357,50.136 3.915,56.429C6.51,63.005 12.764,68.263 19.938,69.234C21.808,69.521 23.728,69.537 25.615,69.294C26.725,69.209 27.494,69.112 28.108,69.169C29.474,69.246 30.727,70.196 31.333,71.434C31.723,72.218 31.869,73.201 31.743,74.18C31.491,76.283 29.909,78.067 27.913,78.88C25.822,79.753 23.171,79.527 20.999,78.285L20.747,78.641C24.68,82.014 30.881,81.44 33.886,77.068C36.078,73.905 35.81,69.525 33.24,66.661C34.004,66.2 34.74,65.683 35.432,65.104C39.519,61.78 42.256,56.773 42.622,51.475C42.8,49.189 42.54,46.884 42.06,44.623C38.949,48.49 37.335,52.114 38.364,56.437C38.364,56.437 34.773,51.717 39.515,42.403C39.938,41.574 40.385,40.809 40.848,40.102C43.297,36.413 46.395,34.411 50.564,33.748C50.58,33.744 50.596,33.744 50.617,33.74C50.702,33.724 50.791,33.711 50.881,33.699C50.905,33.695 50.926,33.691 50.95,33.691C54.069,33.279 57.375,34.047 59.998,35.835C62.296,37.376 64.085,39.697 65.196,42.261C65.875,43.794 66.269,45.388 66.416,46.989C66.428,47.268 66.432,47.535 66.42,47.786C66.424,49.375 65.391,50.896 63.98,51.681C63.085,52.186 61.942,52.421 60.783,52.344C58.298,52.19 56.098,50.475 55.009,48.207C53.841,45.837 53.931,42.743 55.244,40.138L54.809,39.871C51.113,44.664 52.203,51.826 57.538,55.022C59.787,56.384 62.28,56.785 64.577,56.255C62.67,60.105 59.453,63.373 55.505,65.189C52.601,66.629 49.327,67.418 46.001,67.515C45.818,67.523 45.663,67.664 45.647,67.85C45.627,68.053 45.777,68.231 45.981,68.251C52.971,68.89 60.287,66.431 65.204,61.238C70.364,55.891 72.662,47.673 70.45,40.453C69.246,36.263 66.68,32.417 63.195,29.736C61.222,28.154 61.938,25.17 62.813,23.879C63.362,23.054 64.248,22.359 65.285,21.922C67.493,20.975 70.145,21.501 72.081,22.99C74.126,24.526 75.407,27.236 75.415,30.051L75.907,30.096C76.997,24.357 72.914,18.646 66.908,18.201Z" style="fill:white;fill-rule:nonzero;"/>
    </g>
</svg>
