<?xml version="1.0" encoding="UTF-8" standalone="no"?>
<!DOCTYPE svg PUBLIC "-//W3C//DTD SVG 1.1//EN" "http://www.w3.org/Graphics/SVG/1.1/DTD/svg11.dtd">
<svg width="100%" height="100%" viewBox="0 0 160 80" version="1.1" xmlns="http://www.w3.org/2000/svg" xmlns:xlink="http://www.w3.org/1999/xlink" xml:space="preserve" xmlns:serif="http://www.serif.com/" style="fill-rule:evenodd;clip-rule:evenodd;stroke-linejoin:round;stroke-miterlimit:2;">
    <g transform="matrix(0.861434,0,0,0.861434,11.5757,5.25029)">
        <g transform="matrix(1,0,0,1,32.5,-1.5)">
            <path d="M60.13,40.1L59.705,47.289L66.457,60.501L64.561,45.833L60.13,40.1Z" style="fill:white;fill-rule:nonzero;"/>
        </g>
        <g transform="matrix(1,0,0,1,32.5,-1.5)">
            <path d="M76.812,28.837L79.272,34.099L89.143,40.969L82.16,31.257L76.812,28.837Z" style="fill:white;fill-rule:nonzero;"/>
        </g>
        <g transform="matrix(1,0,0,1,32.5,-1.5)">
            <path d="M30.297,45.831L28.404,60.499L35.157,47.292L34.728,40.098L30.297,45.831Z" style="fill:white;fill-rule:nonzero;"/>
        </g>
        <g transform="matrix(1,0,0,1,32.5,-1.5)">
            <path d="M12.697,31.258L5.718,40.966L15.586,34.099L18.045,28.838L12.697,31.258Z" style="fill:white;fill-rule:nonzero;"/>
        </g>
        <g transform="matrix(1,0,0,1,32.5,-1.5)">
            <path d="M69.568,28.322L64.948,17.22C65.747,16.426 66.487,15.578 67.168,14.681L76.909,20.112C74.92,23.218 72.436,25.994 69.568,28.322ZM53.348,35.664L54.904,23.28C55.463,23.106 56.014,22.912 56.556,22.697L63.922,32.066C60.672,33.791 57.111,35.027 53.348,35.664ZM82.219,3.268C82.051,7.496 81.096,11.529 79.503,15.231L71.086,6.95C71.435,5.758 71.7,4.53 71.86,3.268L82.219,3.268ZM30.94,32.066L38.306,22.697C38.848,22.912 39.399,23.106 39.958,23.28L41.513,35.664C37.751,35.027 34.19,33.791 30.94,32.066ZM17.953,20.112L27.694,14.681C28.375,15.578 29.115,16.422 29.914,17.22L25.293,28.322C22.426,25.994 19.941,23.218 17.953,20.112ZM12.643,3.268L23.002,3.268C23.162,4.53 23.427,5.758 23.776,6.95L15.359,15.231C13.765,11.529 12.811,7.496 12.643,3.268ZM79.322,21.456L94.34,29.828L81.605,17.299C83.796,12.608 85.019,7.396 85.019,1.903L85.019,0.576L67.058,0.576C67.037,1.49 66.958,2.391 66.815,3.268C65.545,11.016 59.579,17.233 51.894,18.999C51.646,20.294 51.356,22.085 51.04,24.157C50.502,27.685 49.893,32.028 49.325,36.107C49.19,37.042 49.064,37.96 48.938,38.853C48.286,43.486 47.727,47.411 47.437,48.826C47.147,47.411 46.584,43.486 45.932,38.853C45.806,37.96 45.676,37.042 45.545,36.107C44.974,32.028 44.364,27.685 43.826,24.157C43.506,22.085 43.216,20.294 42.972,18.999C35.283,17.233 29.317,11.016 28.047,3.268C27.904,2.391 27.824,1.49 27.803,0.576L9.843,0.576L9.843,1.903C9.843,7.396 11.066,12.608 13.257,17.299L0.522,29.828L15.54,21.456C17.852,25.092 20.786,28.31 24.196,30.957L15.64,51.519L29.22,34.25C33.076,36.355 37.343,37.819 41.871,38.481L47.433,82.691L52.991,38.481C57.519,37.819 61.786,36.355 65.642,34.25L79.221,51.519L70.666,30.957C74.075,28.31 77.01,25.092 79.322,21.456Z" style="fill:white;fill-rule:nonzero;"/>
        </g>
        <g transform="matrix(1,0,0,1,32.5,-1.5)">
            <path d="M30.577,0.578C30.598,1.496 30.695,2.394 30.863,3.271C32.33,10.96 39.188,16.78 47.432,16.78C55.672,16.78 62.53,10.96 64.001,3.271C64.169,2.394 64.262,1.496 64.287,0.578L30.577,0.578Z" style="fill:white;fill-rule:nonzero;"/>
        </g>
    </g>
</svg>
