<?xml version="1.0" encoding="UTF-8" standalone="no"?>
<!DOCTYPE svg PUBLIC "-//W3C//DTD SVG 1.1//EN" "http://www.w3.org/Graphics/SVG/1.1/DTD/svg11.dtd">
<svg width="100%" height="100%" viewBox="0 0 160 80" version="1.1" xmlns="http://www.w3.org/2000/svg" xmlns:xlink="http://www.w3.org/1999/xlink" xml:space="preserve" xmlns:serif="http://www.serif.com/" style="fill-rule:evenodd;clip-rule:evenodd;stroke-linejoin:round;stroke-miterlimit:2;">
    <g transform="matrix(0.934607,0,0,0.934607,47,4.50588)">
        <path d="M35.692,52.514C34.035,43.653 31.126,35.159 27.28,27.487C31.135,22.14 33.795,17.194 35.241,12.7L36.143,12.7C37.589,17.194 40.249,22.14 44.104,27.487C40.258,35.159 37.349,43.653 35.692,52.514ZM59.438,35.471C57.947,34.023 56.18,32.166 54.344,30.047C53.759,29.368 53.162,28.664 52.569,27.936C57.984,17.667 64.332,8.268 71.384,0.09C65.714,2.254 54.828,3.52 43.056,3.888C43.694,7.155 44.766,10.112 45.64,12.3C49.685,11.948 53.15,11.366 55.279,10.557C52.496,13.78 49.917,17.356 47.581,21.202C45.692,18.347 44.035,15.378 42.898,12.498C42.573,11.669 42.293,10.848 42.057,10.039C41.561,8.579 41.082,6.949 40.7,5.222C40.611,4.806 40.522,4.385 40.444,3.952C38.868,3.985 37.28,4.001 35.692,4.001C34.112,4.001 32.532,3.985 30.964,3.956C30.887,4.385 30.797,4.806 30.704,5.222C30.277,7.164 29.725,8.975 29.169,10.573C28.97,11.208 28.738,11.851 28.486,12.498C27.349,15.378 25.692,18.347 23.807,21.202C21.467,17.356 18.888,13.78 16.105,10.557C18.238,11.37 21.715,11.948 25.769,12.3C26.642,10.112 27.71,7.155 28.352,3.888C16.569,3.52 5.674,2.254 0,0.09C7.051,8.268 13.4,17.667 18.815,27.936C18.222,28.664 17.625,29.368 17.04,30.047C15.204,32.166 13.437,34.023 11.95,35.471C8.965,27.026 7.896,19.188 7.527,14.12C5.374,10.969 3.115,7.936 0.764,5.024C1.125,16.34 4.525,51.543 32.126,71.923C31.398,68.611 30.578,65.331 29.664,62.079C22.657,56.093 17.848,48.943 14.542,41.841C16.101,40.449 18.047,38.524 20.106,36.267C20.716,35.604 21.329,34.913 21.951,34.197C28.173,47.309 32.901,61.646 35.692,76.55C38.483,61.646 43.211,47.309 49.433,34.197C50.055,34.913 50.668,35.604 51.278,36.267C53.337,38.524 55.283,40.449 56.842,41.841C53.536,48.943 48.727,56.093 41.72,62.079C40.806,65.331 39.985,68.611 39.258,71.923C66.859,51.543 70.259,16.34 70.62,5.024C68.268,7.936 66.01,10.969 63.857,14.12C63.488,19.188 62.419,27.026 59.438,35.471Z" style="fill:white;fill-rule:nonzero;"/>
    </g>
</svg>
