<svg viewBox="0 0 320 160" width="320" height="160" xmlns="http://www.w3.org/2000/svg" style="fill:white;fill-rule:nonzero;">
  <path d="M 109.82767,9.9999996 C 104.61852,15.687447 100.23981,22.350299 96.832862,29.723478 l 35.760978,33.56176 -3.87615,4.132436 -34.216585,-32.111387 c -2.78731,7.357103 -4.663816,15.302908 -5.506682,23.609942 L 124.22432,76.725895 121.6654,81.786728 88.558584,65.048614 c -0.292075,7.415638 0.235663,15.063605 1.649033,22.794371 l 30.490563,2.521319 -0.46405,5.648928 -28.804222,-2.379071 c 0.225351,0.937191 0.459497,1.875899 0.711235,2.814607 1.343611,5.007452 3.014783,9.808662 4.966506,14.387862 2.655982,-0.48983 5.401131,-0.993 8.435631,-1.56411 8.11444,-1.5265 16.10301,-3.05118 16.10301,-3.05118 l 1.06154,5.56309 c 0,0 -7.99736,1.53287 -16.12211,3.06149 -2.43003,0.45738 -4.7912,0.9008 -7.03288,1.31753 2.62353,5.30984 5.64741,10.27786 8.99491,14.86161 l 18.45357,-10.39706 2.77791,4.93769 -17.71474,9.99004 c 3.70085,4.48578 7.72865,8.54876 12.01789,12.13192 l 5.20369,-6.17029 c 0.41855,-6.22884 1.50526,-11.44193 4.35991,-15.68658 1.9223,-2.85859 4.68292,-5.1033 8.23606,-6.65346 -2.50646,-3.88888 -4.49609,-8.28519 -5.80028,-13.14585 -4.4057,-16.423592 0.17592,-32.904814 11.04188,-41.883653 L 109.82706,9.9999996 Z m 100.34407,0 -37.29566,54.1478174 c 10.86596,8.978839 15.45729,25.459758 11.05127,41.883653 -1.29205,4.81547 -3.26591,9.17083 -5.74386,13.03272 3.74422,1.63296 6.53729,4.09514 8.3407,7.17452 2.36876,4.04388 3.18312,8.83113 3.45973,14.39665 l 5.94221,7.05169 c 4.28864,-3.58286 8.31735,-7.64554 12.01819,-12.13193 l -17.72383,-9.98943 2.7867,-4.93769 18.45327,10.39706 c 3.34841,-4.58496 6.37107,-9.55086 8.99522,-14.86161 -2.24442,-0.41673 -4.61226,-0.86015 -7.04259,-1.31753 -8.12445,-1.52862 -16.12212,-3.06149 -16.12212,-3.06149 l 1.06155,-5.5634 c 0,0 7.99859,1.52468 16.11271,3.05118 2.97051,0.55929 5.82212,1.09127 8.43562,1.57412 1.95326,-4.58132 3.6226,-9.38829 4.96652,-14.397562 0.25173,-0.938708 0.48588,-1.877416 0.71093,-2.814607 l -28.80393,2.378161 -0.46404,-5.648928 30.49056,-2.520409 c 1.41338,-7.73107 1.93202,-15.378733 1.63963,-22.794674 l -33.10681,16.73781 -2.55923,-5.061136 35.23961,-17.809059 C 230.17,50.605555 228.29776,42.65611 225.5074,35.296581 l -34.21627,32.12079 -3.88525,-4.132133 35.76006,-33.56176 C 219.75809,22.350299 215.38089,15.68775 210.17143,9.9999996 Z m -50.7072,79.1790154 c -3.17007,0 -6.11813,1.620218 -8.42562,4.587687 -2.3081,2.967469 -3.83915,7.247308 -3.83915,12.037298 0,4.78999 1.53074,9.06952 3.83854,12.03699 2.3081,2.96778 5.25616,4.5974 8.42623,4.5974 3.17007,0 6.10842,-1.62962 8.41652,-4.59709 2.3081,-2.96717 3.83854,-7.24671 3.83854,-12.03669 0,-4.78999 -1.53074,-9.069832 -3.83854,-12.037301 -2.3081,-2.967469 -5.24645,-4.587386 -8.41652,-4.587386 z m 12.01819,33.723725 c -3.14217,3.37874 -7.35074,5.56309 -12.01849,5.56309 -4.53643,0 -8.64097,-2.06182 -11.75281,-5.27921 -0.80738,0.20018 -1.56107,0.41977 -2.25593,0.66362 -3.47701,1.21926 -5.57705,2.8692 -7.1084,5.14697 -2.78731,4.14305 -3.50067,11.23719 -3.61137,21.00279 h 49.68388 c -0.041,-9.56906 -0.35001,-16.73903 -2.78671,-20.89906 -1.34057,-2.2899 -3.21374,-3.9265 -6.53971,-5.17488 -1.05153,-0.39489 -2.25441,-0.73913 -3.61107,-1.02363 z" />
</svg>
