<svg viewBox="0 0 320 160" width="320" height="160" xmlns="http://www.w3.org/2000/svg" style="fill:white;fill-rule:nonzero;">
  <path d="m 113.09161,9.9999975 27.27054,104.7294325 87.60621,7.04254 -27.28054,-104.72943 z m -5.72672,0.4737435 C 98.136581,14.070133 90.499131,26.557395 92.295358,33.286129 l 0.984442,3.568222 c 0.202038,-0.533113 0.41195,-1.066833 0.633981,-1.599339 3.001788,-7.180669 8.045459,-14.165659 15.259449,-17.842927 z m 3.2847,12.598731 c -5.04549,3.032686 -9.06292,8.504666 -11.510394,14.35982 -1.589344,3.80146 -2.43475,7.763458 -2.65042,11.065125 l 19.631884,71.268413 c 0.0891,-0.16661 0.17326,-0.33501 0.26504,-0.50161 3.2117,-5.83153 8.42773,-11.41801 15.48602,-14.68181 L 110.64928,23.07338 Z m 22.67971,87.113678 c -5.35445,2.74977 -9.43398,7.184 -11.98353,11.8133 -1.35217,2.45565 -2.20212,4.95674 -2.63164,7.194 l 3.54036,12.84559 0.49222,0.0379 c -1.16316,-8.34443 3.43858,-18.32697 12.49483,-24.56379 l -1.91224,-7.32727 z m 7.97973,10.29877 c -9.8647,5.23117 -14.08811,15.88435 -12.67476,22.0939 L 216.4295,150 c -1.61751,-2.35964 -2.6271,-5.43624 -2.60317,-8.6328 l -6.78688,-2.72614 14.03782,-2.20667 -4.08922,-3.8999 c 1.69747,-2.0952 4.15193,-3.95291 7.51599,-5.35748 l -83.19501,-6.69239 z" />
</svg>
