<svg viewBox="0 0 320 160" width="320" height="160" xmlns="http://www.w3.org/2000/svg" style="fill:white;fill-rule:nonzero;">
  <path d="m 156.82466,10 -16.93187,49.639275 8.62389,20.02767 12.57336,-16.934128 17.20801,21.824234 3.77744,-13.091372 -25.25083,-61.465355 z m -46.76465,56.448171 -9.39671,25.940226 7.93514,-4.111466 8.02019,4.633686 3.76386,-15.525268 -10.32248,-10.9375 z m 26.92484,1.716372 -6.71803,19.693644 -4.93764,-5.230922 -4.74104,19.556545 -12.14782,-7.019083 -10.813007,5.601813 -14.12514,38.99603 27.447707,10.00364 23.74012,-7.25512 23.90729,6.29573 23.17166,-6.96379 29.73998,8.15697 24.9889,-10.23743 -15.66334,-28.78058 -12.6254,8.62195 -12.57595,-8.91685 -8.78008,13.83638 -5.10255,-3.23776 12.62122,-19.8896 -8.60126,-20.937915 -4.92988,17.082872 -19.60634,-24.866038 -14.11899,19.016536 -10.13073,-23.527346 z m 72.12768,21.280026 -10.23711,16.132851 9.39865,6.66436 9.65702,-6.59451 -8.8179,-16.203349 z" />
</svg>
