<svg viewBox="0 0 320 160" width="320" height="160" xmlns="http://www.w3.org/2000/svg" style="fill:white;fill-rule:nonzero;">
  <path d="m 111.35854,10 c -5.46592,0 -10.93125,2.086257 -15.101972,6.256984 -8.341451,8.341452 -8.340856,21.863686 0,30.204842 6.488192,6.488193 16.113222,7.926405 23.994042,4.320297 l 15.99702,15.996425 c -6.38361,5.868454 -13.10987,11.398735 -20.09386,16.666519 l 8.97609,8.975791 c 5.58183,-6.717319 11.30816,-13.2511 17.23472,-19.524768 l 50.5308,50.5305 c -15.4473,12.05036 -36.01222,16.04112 -57.44894,12.68142 l 0.48417,-6.35948 -29.95307,-6.08894 28.42607,26.34041 0.58696,-7.74674 c 25.80053,11.01527 52.9171,10.3121 71.90853,-3.50093 l 18.78942,6.35024 -6.39701,-18.94793 c 13.29162,-18.95568 13.82734,-45.70935 2.9521,-71.173186 l 7.75569,-0.586966 -26.34071,-28.417132 6.08953,29.953073 6.35948,-0.483874 c 3.3603,21.447451 -0.64596,42.016239 -12.70943,57.467715 L 152.81136,62.336984 c 6.27933,-6.060335 12.79106,-11.81825 19.59925,-17.197765 l -8.97519,-8.975494 c -5.06965,7.196724 -10.62883,13.90242 -16.59233,20.204991 L 130.76264,40.288269 C 134.39139,32.400894 132.96063,22.7565 126.46171,16.256984 122.29039,12.086257 116.82506,10 111.35854,10 Z m 0,8.053632 c 3.40678,5.96e-4 6.81475,1.29311 9.41378,3.892439 5.19836,5.198362 5.19807,13.628902 0,18.826668 -5.19806,5.19836 -13.61936,5.19836 -18.81743,0 -5.198359,-5.197469 -5.198656,-13.628306 0,-18.82637 2.59844,-2.599627 5.99717,-3.892737 9.40365,-3.892737 z" />
</svg>
