<svg viewBox="0 0 320 160" width="320" height="160" xmlns="http://www.w3.org/2000/svg" style="fill:white;fill-rule:nonzero;">
  <path d="m 159.44162,9.9999999 c -24.00295,0 -68.269301,45.9582601 -50.63579,88.6872601 2.35321,7.45284 8.21974,14.84994 14.51367,22.7346 7.21275,9.03562 15.22307,18.65291 20.25456,28.57754 h 6.07152 c -5.34768,-11.73954 -14.32283,-22.37593 -22.01784,-32.01592 -8.08642,-10.12994 -14.39805,-19.251386 -14.39864,-25.942042 5.9e-4,-1.06482 0.1112,-2.162968 0.32151,-3.284714 l -0.0354,-0.0078 c 0.0847,-0.362804 0.17638,-0.724134 0.27254,-1.083694 0.2693,-1.108178 0.63122,-2.235234 1.08547,-3.373202 6.80628,-18.110758 27.77376,-31.35462 43.22749,-39.8242 l 1.0601,-0.581078 1.15213,0.396724 c 17.97271,6.164736 38.72929,19.690582 46.00458,40.047194 0.33448,0.887838 0.62356,1.77332 0.85952,2.65408 0.121,0.416784 0.23892,0.835338 0.34864,1.25743 l -0.046,0.0118 c 0.32446,1.51906 0.49552,3.018066 0.49494,4.47666 v 5.9e-4 c 0,6.578866 -7.21126,15.777602 -16.2348,25.812842 -8.57261,9.53247 -18.37926,19.92581 -23.59628,31.45593 h 6.07329 c 4.94241,-9.47836 13.62879,-18.8815 21.62171,-27.76993 6.82544,-7.59029 13.35744,-14.74758 16.18378,-22.10604 15.58714,-36.584324 -29.26856,-90.123145 -52.5807,-90.123145 z m 0.23509,39.9144581 c -11.4092,6.341714 -25.08252,15.402992 -33.51464,26.019318 2.86704,24.483154 17.40107,43.113044 34.89713,43.113044 17.43736,0 31.92685,-18.50394 34.86173,-42.86498 -8.5327,-12.417078 -23.0219,-21.505788 -36.24422,-26.266498 z m -17.18163,24.491408 c 0.2401,-0.0038 0.47902,-0.0018 0.71912,0 3.84042,0.0301 7.68173,0.792566 11.52187,2.193938 -4.96955,11.975516 -17.39695,12.377552 -23.04403,0 3.60032,-1.426148 7.20301,-2.135536 10.80304,-2.193938 z m 36.84271,0 c 3.84043,-0.0301 7.68174,0.672518 11.52216,2.193938 -5.64796,12.377552 -18.07536,11.975516 -23.04432,0 3.84043,-1.401078 7.68174,-2.163852 11.52187,-2.193938 z" />
</svg>
