<svg viewBox="0 0 320 160" width="320" height="160" xmlns="http://www.w3.org/2000/svg" style="fill:white;fill-rule:nonzero;">
  <path d="m 160,9.9999999 c -47.70084,0 -67.27369,50.4155111 -67.27369,50.4155111 0,0 22.90803,-42.659278 67.27369,-42.659278 44.36565,0 67.3241,42.659278 67.3241,42.659278 0,0 -19.54571,-50.4155111 -67.3241,-50.4155111 z m -0.0388,36.8033241 v 0.232686 l -3.68422,12.254848 -2.75346,-6.437673 c 0,0 -3.41274,22.686981 -40.09972,18.072023 21.09695,10.199445 28.77562,21.950137 31.33518,30.753462 0.93075,3.21884 3.10249,5.85596 5.9723,7.4072 2.90859,1.47369 6.20499,1.70637 9.2687,0.58172 3.06371,1.12465 6.39889,0.89197 9.26869,-0.58172 2.86981,-1.55124 5.00277,-4.18836 5.93352,-7.4072 2.63712,-8.803325 10.35457,-20.554017 31.33519,-30.753462 -36.64821,4.614958 -40.02217,-18.072023 -40.02217,-18.072023 l -2.75346,6.437673 -3.72299,-12.254848 v -0.232686 l -0.0388,0.116344 z M 105.16343,86.282547 C 89.627697,85.972299 73.219386,97.102493 66.925202,111.10249 c 0,0 21.682549,-12.254846 34.592798,-13.961217 -18.079777,9.578947 -23.551801,26.991687 -23.551801,26.991687 l 32.122441,-14.42659 c 0,0 -9.42382,14.50416 -15.194462,32.7313 17.094742,-6.5928 27.332962,-21.01939 27.332962,-21.01939 0,0 0.58172,11.13019 -8.91967,28.58172 16.24931,-7.98892 18.34349,-20.5928 18.34349,-20.5928 l 6.98062,14.19391 c 0.62049,-42 -15.8615,-56.969532 -33.46815,-57.318563 z m 109.71191,0 c -17.60665,0.349031 -34.08864,15.318563 -33.5457,57.318563 l 7.09695,-14.19391 c 0,0 2.0554,12.60388 18.26592,20.5928 -9.4626,-17.45153 -8.88088,-28.58172 -8.88088,-28.58172 0,0 10.19945,14.42659 27.30193,21.01939 -5.73961,-18.22714 -15.16342,-32.7313 -15.16342,-32.7313 l 32.07203,14.42659 c 0,0 -5.42937,-17.41274 -23.54018,-26.991687 12.91413,1.706371 34.59281,13.961217 34.59281,13.961217 -6.28257,-13.999997 -22.72577,-25.130191 -38.19946,-24.819943 z m -59.02493,7.678671 -0.11634,12.177282 c -11.47923,-7.407198 0.11634,-12.177282 0.11634,-12.177282 z m 8.29917,0 c 0,0 11.63435,4.770084 0.11635,12.177282 z" />
</svg>
