<svg viewBox="0 0 320 160" width="320" height="160" xmlns="http://www.w3.org/2000/svg" style="fill:white;fill-rule:nonzero;">
  <path d="m 176.43608,9.9999994 c -5.91307,10.3572916 -7.46447,22.8758016 1.84422,21.8319136 7.55455,-0.84616 5.13157,-12.649705 -1.84391,-21.8319136 z m -38.3587,1.2554296 c -5.36539,10.608376 -6.26146,23.179616 2.98164,21.724574 7.50119,-1.18136 4.46525,-12.862814 -2.98164,-21.725202 z m 69.71554,23.64695 c -6.89168,9.530276 -9.63698,21.751564 -0.25516,21.871772 7.6148,0.09792 6.3283,-11.907746 0.25516,-21.872086 z m -99.82638,1.020036 c -5.24927,10.328728 -5.53174,22.340988 2.0793,21.705428 9.37806,-0.784016 5.608,-12.724716 -2.0793,-21.705428 z m 68.29346,2.62824 c -17.4536,0.709946 -15.79392,37.263334 0.81352,36.593876 16.32623,-0.655334 16.35761,-37.289384 -0.81383,-36.593562 z m -33.61255,0.578754 c -0.25987,0.005 -0.51724,0.02636 -0.78464,0.04928 -17.39397,1.501808 -13.78618,37.928712 2.76602,36.505682 16.01709,-1.374694 14.39727,-36.853122 -1.98138,-36.554956 z m -26.01092,26.18825 c -0.50594,-0.0062 -1.01753,0.0204 -1.54983,0.08788 -17.307971,2.193862 -11.99719,38.449401 4.47247,36.368211 15.68502,-1.980437 12.75673,-36.275623 -2.92264,-36.456405 z m 87.44849,0.42151 c -17.4671,-0.32233 -18.35657,36.251141 -1.73564,36.564371 16.33754,0.30947 18.92058,-36.244863 1.73564,-36.564371 z m -45.50931,21.09686 c -17.89614,0.394832 -4.07637,18.889811 -35.71068,29.640681 -24.519475,8.33228 -9.66932,33.43616 11.31769,33.5231 11.51919,0.0483 15.63009,-9.04443 25.05994,-9.00331 10.70756,0.0452 11.56376,8.20234 27.23654,8.26825 20.01154,0.0825 31.59444,-25.17135 8.70012,-33.7497 -29.1495,-10.92161 -16.94829,-28.493845 -35.72104,-28.678707 -0.30036,-0.0026 -0.59852,-0.0062 -0.88257,0 z" />
</svg>
