<svg viewBox="0 0 320 160" width="320" height="160" xmlns="http://www.w3.org/2000/svg" style="fill:white;fill-rule:nonzero;">
  <path d="m 186.52314,10.001254 c -0.40046,-0.0052 -0.8015,0.0058 -1.20341,0.03263 l -5.8e-4,0.0017 c -3.8597,0.259855 -7.73268,2.062376 -11.46678,5.563767 -5.79071,-1.696559 -10.706,-3.064547 -16.52442,-0.167461 -10.91676,-3.432097 -21.85258,-3.773083 -30.18351,5.563766 -12.26425,-2.913254 -25.17698,2.853488 -22.09049,17.030554 -13.591526,4.31791 -16.286503,22.57844 -0.16746,21.246255 2.29191,13.506642 11.87187,16.150514 24.11274,11.80402 5.60418,6.931754 13.41482,11.312896 22.31338,13.409341 0.0808,1.473951 0.0246,2.982549 -0.16341,4.527238 -1.67664,13.792476 -14.66444,30.405826 -35.04192,44.664886 l -6.90519,4.83271 8.41928,-0.39093 c 8.37394,-0.38892 13.87332,-0.69006 17.01611,-0.44753 -1.67981,1.8926 -3.26752,3.57155 -4.70047,4.99411 l -5.45549,5.41767 7.58196,-1.27531 c 6.89682,-1.15981 12.8316,-2.29249 17.30254,-2.41462 4.47064,-0.12213 7.05475,0.62769 8.63755,2.75792 l 2.11637,2.848 1.90473,-2.99352 c 1.88539,-2.96234 3.91976,-3.71591 7.86117,-3.53893 3.94112,0.17699 9.48179,1.73612 16.46984,3.84007 l 8.5723,2.58122 -6.07366,-6.57778 c -2.32136,-2.51394 -4.60952,-5.23115 -6.74379,-8.02256 0.73192,0.0332 1.50947,0.0857 2.31415,0.17208 3.50514,0.37535 7.763,1.14856 11.74252,2.32916 l 7.54357,2.23763 -4.95023,-6.11639 c -9.31144,-11.50374 -18.65175,-20.17767 -20.14389,-30.24125 -0.74607,-5.032504 0.26447,-10.613594 4.41174,-17.720317 0.5636,-0.964925 1.19071,-1.958434 1.87384,-2.976774 2.29018,-0.657431 4.56939,-1.419093 6.82377,-2.284696 7.82277,6.946191 22.52647,1.175119 14.67079,-7.925552 16.95404,-4.174124 30.57329,-17.215339 7.75665,-27.485642 13.45842,-10.417265 5.02096,-26.089359 -11.63483,-25.462244 -4.2258,-6.070771 -9.99081,-9.73587 -15.99547,-9.81296 z m 3.25598,18.908145 c -12.29688,9.435016 -14.14127,10.736019 -15.44862,19.005445 0.0915,1.00246 0.17237,2.024842 0.31846,2.919029 0.91036,5.571273 2.95079,9.426354 6.18742,11.517314 3.23663,2.091249 7.14657,2.181043 11.20664,1.542957 1.11911,-0.176124 2.2694,-0.4175 3.43874,-0.692079 -7.74365,7.6042 -13.15295,14.255311 -16.67167,20.283928 -4.54744,7.791583 -5.94777,14.67512 -5.025,20.899497 1.52535,10.28791 8.83678,18.27785 16.41817,27.01213 -1.82389,-0.33117 -3.62555,-0.61961 -5.25772,-0.79458 -2.57169,-0.27573 -4.64417,-0.43193 -6.41695,-0.29392 -4.55611,-6.75448 -7.83518,-13.49798 -8.19869,-18.48228 l -4.87227,0.35514 c 0.64848,8.89625 6.94013,19.10072 14.37456,28.16963 -3.56578,-0.94702 -6.80067,-1.63332 -9.72721,-1.76469 -3.9544,-0.17728 -7.61171,0.91006 -10.32574,3.53517 -2.80065,-2.08519 -6.53331,-2.72096 -10.54632,-2.61125 -3.22335,0.0878 -6.90115,0.62712 -10.78857,1.27098 12.72246,-14.21749 30.32065,-39.67685 30.03914,-65.37989 l -4.88526,0.0537 c 0.23387,21.283212 -13.80028,43.89717 -25.48014,58.13111 -3.42633,-0.9782 -7.42895,-0.98571 -12.71842,-0.74087 17.37674,-13.55861 28.83804,-28.75575 30.59927,-43.242624 0.98687,-8.116112 -1.28772,-16.009904 -7.24271,-22.530223 -4.66208,-5.105846 -11.50663,-9.38651 -20.66592,-12.734298 2.17989,-0.542806 4.31734,-1.260293 6.19666,-2.650512 1.94544,-1.44017 3.26435,-3.882511 3.4985,-6.898263 1.39744,1.729474 2.7175,2.959451 4.5642,3.465878 1.15115,0.315578 2.56678,0.118378 3.57963,-0.524906 0.3407,-0.216545 0.59334,-0.49661 0.86243,-0.765126 0.29104,3.857391 0.63635,7.540391 1.44248,10.262219 0.37679,1.273285 0.79977,2.465727 1.99712,3.446821 1.19735,0.981671 3.32671,0.988601 4.62541,0.244263 0.8529,-0.488815 1.6238,-1.209766 2.38344,-2.051404 0.15302,1.651517 0.51278,3.032209 1.17454,4.222341 0.40595,0.729613 1.0192,1.445078 1.90386,1.868929 0.88495,0.423562 1.94025,0.440886 2.76774,0.205574 1.65498,-0.470625 2.71692,-1.550464 3.83718,-2.917297 2.41433,-2.946168 4.95657,-7.863187 7.33655,-14.291979 -0.47554,-7.693127 -1.00766,-11.277671 -10.25616,-16.965013 7.25369,3.757203 13.76592,5.917457 25.77465,-2.080854 z" />
</svg>
