<svg viewBox="0 0 320 160" width="320" height="160" xmlns="http://www.w3.org/2000/svg" style="fill:white;fill-rule:nonzero;">
  <path d="m 119.63541,120.89315 a 18.681825,18.681825 0 0 0 5.09644,3.56541 l -10.49072,10.6381 a 15.001335,15.001335 0 0 0 -8.72278,-8.61693 l 10.51041,-10.63841 a 18.797206,18.797206 0 0 0 3.60665,5.05213 z M 184.1249,35.837581 c -10.07781,10.196576 -17.78801,24.34594 -31.69369,38.415 -2.80913,2.844518 -12.39711,11.493454 -17.93877,16.4779 l 15.14502,14.965649 c 4.91676,-5.61212 13.45401,-15.30533 16.26345,-18.146464 13.89306,-14.069059 27.94612,-21.965406 38.02024,-32.145674 16.59421,-16.791736 25.30683,-45.4039926 25.30683,-45.4039926 0,0 -28.51287,9.0458456 -45.10308,25.8378896 z m -77.15245,97.881899 a 9.5135222,9.5135222 0 1 0 0.08,13.454 9.481831,9.481831 0 0 0 -0.08,-13.454 z m 28.03905,-12.49281 c 3.43373,0 6.40655,-0.86458 7.53728,-2.01839 l 6.42594,-6.49301 -21.50081,-21.244507 -6.40686,6.502856 c -2.45038,2.482381 -3.45619,13.248781 2.4153,19.047041 3.11374,3.08482 7.62744,4.20294 11.52884,4.20294 z" />
</svg>
