<svg viewBox="0 0 320 160" width="320" height="160" xmlns="http://www.w3.org/2000/svg" style="fill:white;fill-rule:nonzero;">
  <path d="m 178.43762,10.000291 c -4.84276,10.061407 -11.19078,17.501273 -18.35572,17.501273 -7.13411,0 -13.68374,-7.35317 -18.51923,-17.33719 0.10648,11.45029 -2.8249,26.440575 -9.00069,30.583661 -6.17579,4.142795 -14.44159,-3.491701 -22.93782,-9.346309 5.07813,9.903143 12.24656,19.637547 8.6638,26.846709 -3.55221,7.149812 -17.21471,10.461721 -27.01952,10.364552 8.535205,5.611974 22.93724,13.325312 22.93782,21.583264 5.8e-4,8.257661 -14.402033,15.625669 -22.93782,21.237639 9.80481,-0.0969 23.46701,3.37824 27.0201,10.52777 3.55716,7.1597 -2.62707,16.38207 -9.81877,24.89255 13.04107,-4.48405 18.95154,-1.66846 24.83757,3.1455 h 9.23692 C 130.11005,139.69712 121.5795,118.62967 121.5795,94.268932 c -5.8e-4,-34.509715 17.1414,-62.521876 38.22951,-62.521876 21.08869,0 38.2295,28.013324 38.2295,62.522167 0,24.362197 -8.5291,45.429067 -20.96475,55.730777 h 7.94607 c 5.77402,-4.25335 11.57772,-7.46227 26.09234,-2.6998 -7.63188,-8.8046 -12.2771,-18.17826 -8.71907,-25.33825 3.56589,-7.17571 16.48332,-10.65141 26.33846,-10.52806 -8.55324,-5.61401 -21.91958,-12.970668 -21.91958,-21.237639 0,-8.26668 13.36605,-15.968962 21.919,-21.582973 -9.85485,0.123352 -22.7717,-3.189138 -26.33759,-10.364261 -3.58276,-7.209162 2.90403,-16.943567 7.98215,-26.846709 -8.49564,5.853444 -16.75242,13.494631 -22.93811,9.345727 C 181.25175,36.598549 178.30758,21.509058 178.43675,10 Z m -20.06521,27.274371 c -5.69052,0.739826 -10.86407,7.437248 -10.86407,16.119371 0,4.78487 1.64955,9.014653 4.07297,11.937301 l 2.95465,3.554542 -4.53642,0.854451 c -3.14637,0.592036 -5.45284,2.2509 -7.42735,4.964081 -1.9754,2.712891 -3.48647,6.500465 -4.54602,10.864073 -1.91576,7.892257 -2.35011,17.525419 -2.4176,26.029209 h 10.50041 l 0.19085,2.51826 2.65441,35.65684 h 22.16483 l 2.35505,-35.63852 0.16379,-2.53688 h 10.0006 c -0.008,-8.6091 -0.128,-18.376666 -1.86396,-26.328854 -0.95861,-4.391538 -2.41091,-8.173875 -4.40929,-10.855345 -1.99866,-2.68118 -4.40259,-4.333934 -7.93647,-4.881749 l -4.63737,-0.718589 2.92788,-3.663639 c 2.31869,-2.908102 3.89114,-7.086972 3.89114,-11.755181 -5.8e-4,-9.256412 -5.78478,-16.092024 -12.05599,-16.092024 -0.73896,0 -1.15207,-0.02996 -1.17244,-0.02735 h -0.009 z" />
</svg>
