<svg viewBox="0 0 320 160" width="320" height="160" xmlns="http://www.w3.org/2000/svg" style="fill:white;fill-rule:nonzero;">
  <path d="m 159.46309,9.9999995 c -23.07875,0 -65.640684,44.1887035 -48.68613,85.2724855 2.26261,7.165885 7.90326,14.278165 13.95485,21.859245 6.93503,8.68771 14.63692,17.93469 19.47468,27.4772 h 5.83775 c -5.14178,-11.28753 -13.77135,-21.51438 -21.17008,-30.7832 -7.77506,-9.73989 -13.84367,-18.510137 -13.84424,-24.943179 5.7e-4,-1.023819 0.10692,-2.079686 0.30913,-3.158241 l -0.034,-0.0077 c 0.0814,-0.348836 0.1696,-0.696254 0.26205,-1.04197 0.25893,-1.065509 0.60692,-2.149169 1.04367,-3.243322 6.54422,-17.413429 26.70438,-30.147354 41.56308,-38.290826 l 1.01928,-0.558705 1.10777,0.381451 c 17.2807,5.927372 37.23808,18.932425 44.23323,38.505233 0.32161,0.853655 0.59954,1.705041 0.82643,2.551889 0.11627,0.400736 0.22972,0.803174 0.33522,1.209014 l -0.0442,0.01135 c 0.31196,1.460572 0.47645,2.90186 0.47589,4.304293 v 5.67e-4 c 0,6.325556 -6.93361,15.170106 -15.6097,24.818956 -8.24245,9.16559 -17.67151,19.15874 -22.68765,30.24491 h 5.83945 c 4.75211,-9.1134 13.10403,-18.15449 20.7892,-26.70068 6.56265,-7.29804 12.84311,-14.17975 15.56063,-21.254877 C 225.00622,61.478237 181.87764,10.00085 159.46309,10.00085 Z m 0.22604,38.3776095 c -10.9699,6.097537 -24.11675,14.809924 -32.22421,25.017483 2.75666,23.540461 16.73108,41.453038 33.55347,41.453038 16.76596,0 30.69755,-17.791478 33.51943,-41.214525 C 186.33366,61.694629 172.40235,52.955867 159.68913,48.37846 Z m -16.52007,23.548402 c 0.23085,-0.0037 0.46058,-0.0017 0.69143,0 3.69256,0.02893 7.38596,0.76205 11.07823,2.109464 -4.7782,11.514417 -16.7271,11.900973 -22.15674,0 3.4617,-1.371237 6.92566,-2.05331 10.38708,-2.109464 z m 35.42413,0 c 3.69256,-0.02893 7.38596,0.646623 11.07852,2.109464 -5.4305,11.900973 -17.3794,11.514417 -22.15703,0 3.69255,-1.34713 7.38596,-2.080536 11.07823,-2.109464 z" />
</svg>
