<svg viewBox="0 0 320 160" width="320" height="160" xmlns="http://www.w3.org/2000/svg" style="fill:white;fill-rule:nonzero;">
  <path d="m 113.09161,9.9999991 27.27054,104.7294309 87.60621,7.04254 -27.28054,-104.729428 z m -5.72673,0.4737439 C 98.136577,14.070135 90.499128,26.557397 92.295356,33.28613 l 0.984441,3.568222 c 0.202038,-0.533113 0.411951,-1.066832 0.63398,-1.599339 3.00179,-7.180668 8.045463,-14.165659 15.259453,-17.842927 z m 3.28471,12.598731 c -5.04549,3.032685 -9.06292,8.504666 -11.510397,14.359821 -1.589343,3.801459 -2.434751,7.763457 -2.65042,11.065122 l 19.631887,71.268413 c 0.0891,-0.16659 0.17326,-0.33501 0.26504,-0.50161 3.2117,-5.83153 8.42773,-11.418 15.48602,-14.68181 L 110.64928,23.073382 Z m 22.67971,87.113686 c -5.35445,2.74977 -9.43398,7.184 -11.98353,11.8133 -1.35217,2.45565 -2.20212,4.95673 -2.63164,7.19399 l 3.54036,12.8456 0.49222,0.0379 c -1.16316,-8.34443 3.43857,-18.32697 12.49483,-24.56378 l -1.91224,-7.32728 z m 7.97973,10.29877 c -9.86471,5.23117 -14.08811,15.88434 -12.67476,22.0939 L 216.42949,150 c -1.61751,-2.35963 -2.62709,-5.43624 -2.60316,-8.63279 l -6.7869,-2.72615 14.03784,-2.20666 -4.08922,-3.89991 c 1.69748,-2.09519 4.15192,-3.95291 7.51598,-5.35748 l -83.195,-6.69238 z" />
</svg>
