<svg viewBox="0 0 320 160" width="320" height="160" xmlns="http://www.w3.org/2000/svg" style="fill:white;fill-rule:nonzero;">
  <path d="m 168.53125,10 -42,42 h -42 v 56 h 42 l 42,42 z m 22.51375,12.10475 -2.03875,7.606812 c 22.77887,6.103125 38.5875,26.705 38.5875,50.288438 0,23.583 -15.80863,44.18488 -38.5875,50.28844 l 2.03875,7.60681 C 217.22937,130.87906 235.46875,107.10837 235.46875,80 c 0,-27.108813 -18.23938,-50.879062 -44.42375,-57.89525 z m -5.43594,20.284688 -2.03787,7.606812 C 197.17,53.63975 206.59375,65.922125 206.59375,80 c 0,14.077875 -9.42375,26.36025 -23.02256,30.00375 l 2.03787,7.60681 C 202.61337,113.054 214.46875,97.603688 214.46875,80 c 0,-17.604125 -11.85538,-33.054 -28.85969,-37.610562 z m -5.4355,20.283812 -2.03744,7.606813 c 4.417,1.184312 7.45763,5.146749 7.45763,9.719937 0,4.573187 -3.04063,8.535625 -7.45806,9.719937 l 2.03787,7.606813 c 7.82425,-2.0965 13.29563,-9.226875 13.29563,-17.32675 0,-8.099438 -5.47138,-15.23025 -13.29563,-17.32675 z" />
</svg>
