<svg viewBox="0 0 320 160" width="320" height="160" xmlns="http://www.w3.org/2000/svg" style="fill:white;fill-rule:nonzero;">
  <path d="M 97.372546,15.001261 83.51977,46.257524 c -0.444627,0.09372 -0.883791,0.191215 -1.311187,0.295858 -2.224396,0.544647 -4.181511,1.226296 -5.902023,2.013008 L 72.832754,26.110209 62.310898,62.788568 c -0.544647,1.564599 -1.018692,3.196859 -1.402802,4.889635 l -0.109266,0.380328 0.02942,-0.01681 c -1.526356,7.003504 -1.496098,15.013933 1.511647,23.457642 1.389354,5.892777 6.520214,12.756757 16.910952,20.228847 12.268425,8.82193 31.539931,18.05151 58.202841,26.83731 -0.10633,-0.75436 -0.16516,-1.52342 -0.16516,-2.30551 0,-5.13128 2.36896,-9.74355 6.06508,-12.79542 l -1.71043,-17.95738 -13.25476,15.83931 c -4.10334,-1.54905 -8.00454,-3.13508 -11.72335,-4.74885 L 115.42532,83.743607 101.31745,109.2172 c -3.810844,-2.03822 -7.35273,-4.10713 -10.629857,-6.19872 L 88.743085,65.178963 76.584346,92.519315 C 73.438758,89.742708 70.718885,86.953914 68.41044,84.173105 66.626889,75.761335 68.237296,68.177042 70.99289,62.14348 l 1.883991,-1.093496 c 6.661839,-2.309707 14.924839,-3.212829 24.586439,-2.598 13.7557,0.875806 30.47249,4.937124 49.65365,12.945031 0.0412,-5.501942 3.23762,-10.300383 7.85535,-12.667244 l -2.35215,-22.101067 -12.6664,17.978392 c -4.06804,-1.512908 -7.9953,-2.828298 -11.77211,-3.954574 l -1.79027,-28.883939 -13.68636,25.12016 c -4.95225,-0.909006 -9.54477,-1.443987 -13.748974,-1.643187 L 97.371705,15 Z m 135.775104,12.580672 -6.71269,29.53533 c -4.17226,-0.522794 -8.77655,-0.788393 -13.79982,-0.746788 l -8.22854,-27.922822 -7.59606,28.982278 c -3.926,0.470682 -8.03817,1.107365 -12.32012,1.912148 l -7.99109,-18.844113 -6.90139,19.22318 c 3.74025,2.59842 6.20629,6.921555 6.20629,11.783874 0,1.011547 -0.10801,1.999561 -0.31099,2.954374 19.846,-4.442067 36.67962,-5.533042 50.16552,-4.076447 9.62377,1.038023 17.61193,3.335962 23.78291,6.745049 l 1.67177,1.40028 c 1.68773,6.415151 1.98359,14.164183 -1.20739,22.150234 -2.74845,2.34585 -5.90328,4.6295 -9.47543,6.8291 l -7.32499,-29.011693 -8.35882,36.956983 c -3.57635,1.4982 -7.40737,2.93 -11.49642,4.28574 l -8.28906,-25.877459 -8.09994,30.541409 c -3.9281,0.95398 -8.02976,1.8508 -12.32432,2.67701 l -9.4998,-19.09206 -6.24915,21.01051 c 1.08005,2.19792 1.68941,4.66354 1.68941,7.26322 0,2.40721 -0.52531,4.69842 -1.4608,6.76901 29.59249,-4.13949 51.34475,-10.1617 65.51439,-17.04754 11.51239,-5.59355 17.73675,-11.48381 20.10991,-17.05467 4.40089,-7.80829 5.79528,-15.695587 5.48346,-22.856686 l 0.0265,0.02227 -0.0429,-0.395878 c -0.0899,-1.733961 -0.27905,-3.423375 -0.54969,-5.057736 l -4.12268,-37.931971 -7.24641,21.535828 c -1.56082,-1.06744 -3.37462,-2.071843 -5.47294,-2.987993 -0.40345,-0.175246 -0.8195,-0.345448 -1.24143,-0.513549 l -8.3273,-33.160006 z m -71.68831,37.43187 c -3.63182,0 -6.48996,2.858556 -6.48996,6.490797 0,1.48349 0.48329,2.8325 1.29606,3.915911 1.43726,0.01051 2.90604,0.06892 4.3992,0.177346 1.81255,0.131539 3.58349,0.334521 5.30905,0.597599 1.22293,-1.173765 1.97728,-2.829559 1.97728,-4.690856 0,-3.63098 -2.86023,-6.491217 -6.49163,-6.491217 z m -5.31703,18.267527 c -0.42866,-0.0013 -0.85396,0.0021 -1.27463,0.01051 -5.04975,0.102541 -9.4935,0.896818 -12.70423,2.092856 -2.14076,0.79848 -3.70662,1.777667 -4.55973,2.613969 -0.85312,0.836302 -0.9981,1.325896 -0.9981,1.836503 0,1.019532 1.60116,3.545668 5.99195,5.817972 4.3908,2.272725 10.88664,4.082331 18.06749,4.60344 7.18127,0.52111 13.65232,-0.358892 17.93385,-1.954169 2.14034,-0.797639 3.70662,-1.777667 4.55973,-2.613969 0.85312,-0.835042 0.99768,-1.325476 0.99768,-1.835662 0,-1.021213 -1.60116,-3.54693 -5.99195,-5.819234 -4.39038,-2.272724 -10.88622,-4.08149 -18.06749,-4.601762 -1.34649,-0.09834 -2.66776,-0.146248 -3.95457,-0.15003 z m -2.3904,24.04473 -1.24395,12.40165 c 0.45388,-0.0378 0.91195,-0.063 1.37549,-0.063 2.2618,0 4.42273,0.46228 6.39372,1.29312 l 1.28177,-12.77819 c -0.48455,-0.0252 -0.97205,-0.0546 -1.46248,-0.0904 -2.17691,-0.15801 -4.29624,-0.41689 -6.34497,-0.7636 z m 0.13154,20.19313 c -4.87493,0 -8.74041,3.86632 -8.74041,8.74124 0,4.87283 3.86632,8.73957 8.73999,8.73957 4.8724,0 8.74041,-3.86758 8.74041,-8.74041 0,-4.87282 -3.86717,-8.7404 -8.74125,-8.7404 z" />
</svg>
