<svg viewBox="0 0 320 160" width="320" height="160" xmlns="http://www.w3.org/2000/svg" style="fill:white;fill-rule:nonzero;">
  <path d="m 160,10.0003 -1.20648,0.602488 c -28.77556,14.387781 -28.0127,14.140491 -56.78827,18.936418 l -2.575408,0.429235 0.344707,2.588002 c 4.833391,36.249414 14.489091,65.304938 25.484951,85.463417 5.49734,10.07954 11.32319,17.93976 17.16433,23.38674 C 148.26497,146.85327 154.19243,150 160,150 c 5.80757,0 11.73503,-3.14643 17.57617,-8.5931 5.84114,-5.44638 11.66669,-13.3072 17.16433,-23.38614 10.99586,-20.15908 20.65156,-49.214603 25.48495,-85.464317 l 0.34471,-2.588302 -2.57541,-0.429235 C 189.21918,24.742979 189.98204,24.990569 161.20648,10.602788 L 160,10 Z m -9.59185,12.607892 c 4.79592,0 4.79592,0 9.59185,4.795927 4.79593,-4.795927 4.79593,-4.795927 9.59185,-4.795927 -4.79592,4.795927 -4.79592,4.795927 -4.79592,9.591854 l 0.79912,14.387781 h 32.71961 c 0,0 4.84868,0 9.64461,-4.795927 0,4.795927 0,4.795927 -4.79593,9.591853 4.79593,4.795927 4.79593,4.795927 4.79593,9.591854 -4.79593,-4.795927 -9.64461,-4.795927 -9.64461,-4.795927 H 166.128 l 3.46385,62.34705 c 0,0 0,9.59185 4.79593,19.18371 -4.79593,0 -14.38778,0 -14.38778,-4.79593 0,4.79593 -9.59185,4.79593 -14.38778,4.79593 4.79593,-9.59186 4.79593,-19.18371 4.79593,-19.18371 l 3.46355,-62.34705 h -32.20015 c 0,0 -4.83489,0 -9.63082,4.795927 0,-4.795927 0,-4.795927 4.79593,-9.591854 -4.79593,-4.795926 -4.79593,-4.795926 -4.79593,-9.591853 4.79593,4.795927 9.63082,4.795927 9.63082,4.795927 h 32.7334 l 0.79912,-14.387781 c 0,-4.795927 0,-4.795927 -4.79592,-9.591854 z" />
</svg>
